# xmcd
#
# Track frame offsets: 
#        150
#        11275
#        24492
#        39622
#        52925
#        80337
#        89092
#        100775
#        113992
#        124762
#        135932
#        151437
#        160160
#
# Disc length: 2207 seconds
#
# Revision: 4
# Processed by: cddbd v1.5.2PL0 Copyright (c) Steve Scherf et al.
# Submitted via: ExactAudioCopy v1.1
#
DISCID=96089d0d
DTITLE=The Beatles - Sessions
DYEAR=1993
DGENRE=Rock
TTITLE0=Come And Get It
TTITLE1=Leave My Kitten Alone
TTITLE2=Not Guilty
TTITLE3=I'm Looking Through You
TTITLE4=What's The New, Mary Jane?
TTITLE5=How Do You Do It?
TTITLE6=Besame Mucho
TTITLE7=One After 909
TTITLE8=If You've Got Troubles
TTITLE9=That Means A lot
TTITLE10=While My Guitar Gently Weeps
TTITLE11=Mailman, Bring Me No More Blues
TTITLE12=Christmas Time Is Here Again
EXTD=MDCD002 - Sessions - Masterdsic 1993 First mastering\n\nMoptop
EXTT0=
EXTT1=
EXTT2=
EXTT3=
EXTT4=
EXTT5=
EXTT6=
EXTT7=
EXTT8=
EXTT9=
EXTT10=
EXTT11=
EXTT12=
PLAYORDER=
